<svg width="249" height="47" viewBox="0 0 249 47" fill="none" xmlns="http://www.w3.org/2000/svg">
<rect width="69" height="47" transform="translate(22)" fill="#D9D9D9"/>
<path d="M72.6786 33.6927L59.3929 25.1902C59.0714 24.9854 58.8304 24.7378 58.6696 24.4476C58.5089 24.1573 58.4286 23.8415 58.4286 23.5C58.4286 23.1585 58.5089 22.8427 58.6696 22.5524C58.8304 22.2622 59.0714 22.0146 59.3929 21.8098L72.6786 13.3073C72.8571 13.1707 73.0536 13.0854 73.2679 13.0512C73.4821 13.0171 73.6786 13 73.8571 13C74.4286 13 74.9286 13.1878 75.3571 13.5634C75.7857 13.939 76 14.4341 76 15.0488V31.9512C76 32.5659 75.7857 33.061 75.3571 33.4366C74.9286 33.8122 74.4286 34 73.8571 34C73.6786 34 73.4821 33.9829 73.2679 33.9488C73.0536 33.9146 72.8571 33.8293 72.6786 33.6927ZM51.25 33.6927L37.9643 25.1902C37.6429 24.9854 37.4018 24.7378 37.2411 24.4476C37.0804 24.1573 37 23.8415 37 23.5C37 23.1585 37.0804 22.8427 37.2411 22.5524C37.4018 22.2622 37.6429 22.0146 37.9643 21.8098L51.25 13.3073C51.4286 13.1707 51.625 13.0854 51.8393 13.0512C52.0536 13.0171 52.25 13 52.4286 13C53 13 53.5 13.1878 53.9286 13.5634C54.3571 13.939 54.5714 14.4341 54.5714 15.0488V31.9512C54.5714 32.5659 54.3571 33.061 53.9286 33.4366C53.5 33.8122 53 34 52.4286 34C52.25 34 52.0536 33.9829 51.8393 33.9488C51.625 33.9146 51.4286 33.8293 51.25 33.6927ZM50.2857 28.1098V18.8902L43 23.5L50.2857 28.1098ZM71.7143 28.1098V18.8902L64.4286 23.5L71.7143 28.1098Z" fill="#767676"/>
<rect width="69" height="47" transform="translate(90)" fill="#D9D9D9"/>
<path d="M111 37.3279V9.67206C111 8.91498 111.267 8.28036 111.8 7.76822C112.333 7.25607 112.956 7 113.667 7C113.889 7 114.122 7.0334 114.367 7.1002C114.611 7.167 114.844 7.26721 115.067 7.40081L136.8 21.2287C137.2 21.496 137.5 21.83 137.7 22.2308C137.9 22.6316 138 23.0547 138 23.5C138 23.9453 137.9 24.3684 137.7 24.7692C137.5 25.17 137.2 25.504 136.8 25.7713L115.067 39.5992C114.844 39.7328 114.611 39.833 114.367 39.8998C114.122 39.9666 113.889 40 113.667 40C112.956 40 112.333 39.7439 111.8 39.2318C111.267 38.7196 111 38.085 111 37.3279ZM116.333 32.4514L130.333 23.5L116.333 14.5486V32.4514Z" fill="#1C1B1F"/>
<rect width="69" height="47" transform="translate(158)" fill="#D9D9D9"/>
<path d="M173 32.3395V14.6609C173 14.0181 173.214 13.5002 173.643 13.1074C174.071 12.7145 174.571 12.5181 175.143 12.5181C175.321 12.5181 175.518 12.5359 175.732 12.5716C175.946 12.6074 176.143 12.6966 176.321 12.8395L189.607 21.7324C189.929 21.9466 190.17 22.2056 190.33 22.5091C190.491 22.8127 190.571 23.1431 190.571 23.5002C190.571 23.8574 190.491 24.1877 190.33 24.4913C190.17 24.7949 189.929 25.0538 189.607 25.2681L176.321 34.1609C176.143 34.3038 175.946 34.3931 175.732 34.4288C175.518 34.4645 175.321 34.4824 175.143 34.4824C174.571 34.4824 174.071 34.2859 173.643 33.8931C173.214 33.5002 173 32.9824 173 32.3395ZM194.429 32.3395V14.6609C194.429 14.0181 194.643 13.5002 195.071 13.1074C195.5 12.7145 196 12.5181 196.571 12.5181C196.75 12.5181 196.946 12.5359 197.161 12.5716C197.375 12.6074 197.571 12.6966 197.75 12.8395L211.036 21.7324C211.357 21.9466 211.598 22.2056 211.759 22.5091C211.92 22.8127 212 23.1431 212 23.5002C212 23.8574 211.92 24.1877 211.759 24.4913C211.598 24.7949 211.357 25.0538 211.036 25.2681L197.75 34.1609C197.571 34.3038 197.375 34.3931 197.161 34.4288C196.946 34.4645 196.75 34.4824 196.571 34.4824C196 34.4824 195.5 34.2859 195.071 33.8931C194.643 33.5002 194.429 32.9824 194.429 32.3395ZM177.286 28.3216L184.571 23.5002L177.286 18.6788V28.3216ZM198.714 28.3216L206 23.5002L198.714 18.6788V28.3216Z" fill="#767676"/>
</svg>
