<svg width="158" height="158" viewBox="0 0 158 158" fill="none" xmlns="http://www.w3.org/2000/svg">
<mask id="mask0_995_972" style="mask-type:alpha" maskUnits="userSpaceOnUse" x="0" y="0" width="158" height="158">
<rect width="157.113" height="157.113" fill="#D9D9D9"/>
</mask>
<g mask="url(#mask0_995_972)">
<path d="M69.719 103.106L101.633 82.6481C103.16 81.6662 103.924 80.3023 103.924 78.5566C103.924 76.8109 103.16 75.4471 101.633 74.4651L69.719 54.0077C68.0824 52.9166 66.4185 52.8348 64.7274 53.7622C63.0363 54.6896 62.1907 56.1353 62.1907 58.0992V99.0141C62.1907 100.978 63.0363 102.424 64.7274 103.351C66.4185 104.278 68.0824 104.197 69.719 103.106ZM78.5566 144.021C69.5008 144.021 60.9905 142.302 53.0257 138.865C45.061 135.428 38.1327 130.764 32.241 124.872C26.3492 118.981 21.6849 112.052 18.2481 104.088C14.8112 96.1228 13.0928 87.6125 13.0928 78.5566C13.0928 69.5008 14.8112 60.9905 18.2481 53.0257C21.6849 45.061 26.3492 38.1327 32.241 32.241C38.1327 26.3492 45.061 21.6849 53.0257 18.2481C60.9905 14.8112 69.5008 13.0928 78.5566 13.0928C87.6125 13.0928 96.1228 14.8112 104.088 18.2481C112.052 21.6849 118.981 26.3492 124.872 32.241C130.764 38.1327 135.428 45.061 138.865 53.0257C142.302 60.9905 144.021 69.5008 144.021 78.5566C144.021 87.6125 142.302 96.1228 138.865 104.088C135.428 112.052 130.764 118.981 124.872 124.872C118.981 130.764 112.052 135.428 104.088 138.865C96.1228 142.302 87.6125 144.021 78.5566 144.021ZM78.5566 130.928C93.1769 130.928 105.56 125.854 115.707 115.707C125.854 105.56 130.928 93.1769 130.928 78.5566C130.928 63.9364 125.854 51.5528 115.707 41.4059C105.56 31.259 93.1769 26.1855 78.5566 26.1855C63.9364 26.1855 51.5528 31.259 41.4059 41.4059C31.259 51.5528 26.1855 63.9364 26.1855 78.5566C26.1855 93.1769 31.259 105.56 41.4059 115.707C51.5528 125.854 63.9364 130.928 78.5566 130.928Z" fill="#787878"/>
</g>
</svg>
